<mxfile host="app.diagrams.net" agent="Mozilla/5.0 (Windows NT 10.0; Win64; x64) AppleWebKit/537.36 (KHTML, like Gecko) Chrome/127.0.0.0 Safari/537.36" version="24.7.7">
  <diagram name="Page-1" id="NOzIcL9RNrYShN4Gubcl">
    <mxGraphModel grid="1" page="1" gridSize="10" guides="1" tooltips="1" connect="1" arrows="1" fold="1" pageScale="1" pageWidth="850" pageHeight="1100" math="0" shadow="0">
      <root>
        <mxCell id="0" />
        <mxCell id="1" parent="0" />
        <mxCell id="htnstNkmCHxIXwUFOfN9-10" value="PenType(enum)" style="swimlane;fontStyle=0;childLayout=stackLayout;horizontal=1;startSize=30;horizontalStack=0;resizeParent=1;resizeParentMax=0;resizeLast=0;collapsible=1;marginBottom=0;whiteSpace=wrap;html=1;" vertex="1" parent="1">
          <mxGeometry x="820" y="-18.75" width="140" height="90" as="geometry" />
        </mxCell>
        <mxCell id="htnstNkmCHxIXwUFOfN9-12" value="BALL&lt;div&gt;GEL&lt;/div&gt;&lt;div&gt;FOUNTAIN&lt;/div&gt;" style="text;strokeColor=none;fillColor=none;align=left;verticalAlign=middle;spacingLeft=4;spacingRight=4;overflow=hidden;points=[[0,0.5],[1,0.5]];portConstraint=eastwest;rotatable=0;whiteSpace=wrap;html=1;" vertex="1" parent="htnstNkmCHxIXwUFOfN9-10">
          <mxGeometry y="30" width="140" height="60" as="geometry" />
        </mxCell>
        <mxCell id="htnstNkmCHxIXwUFOfN9-14" value="" style="whiteSpace=wrap;html=1;aspect=fixed;" vertex="1" parent="1">
          <mxGeometry x="347.5" y="5" width="192.5" height="192.5" as="geometry" />
        </mxCell>
        <mxCell id="htnstNkmCHxIXwUFOfN9-15" value="&lt;h1 style=&quot;margin-top: 0px;&quot;&gt;&lt;div style=&quot;background-color:#1e1f22;color:#bcbec4&quot;&gt;&lt;pre style=&quot;font-family:&#39;JetBrains Mono&#39;,monospace;font-size:9.8pt;&quot;&gt;&lt;span style=&quot;white-space: pre;&quot;&gt;&#x9;&lt;/span&gt;&lt;i&gt;Pen&lt;/i&gt;(Abstract)&lt;br&gt;&lt;/pre&gt;&lt;pre style=&quot;font-family:&#39;JetBrains Mono&#39;,monospace;font-size:9.8pt;&quot;&gt;__brand: Brand&lt;br&gt;__penType: PenType&lt;br&gt;__price: &lt;span style=&quot;color:#8888c6;&quot;&gt;float&lt;br&gt;&lt;/span&gt;__length: &lt;span style=&quot;color:#8888c6;&quot;&gt;int&lt;br&gt;&lt;/span&gt;__writingSttrategy: WritingStrategy&lt;br&gt;__penBody: PenBody&lt;/pre&gt;&lt;pre style=&quot;font-family:&#39;JetBrains Mono&#39;,monospace;font-size:9.8pt;&quot;&gt;@abstractmethod&lt;/pre&gt;&lt;pre style=&quot;font-family:&#39;JetBrains Mono&#39;,monospace;font-size:9.8pt;&quot;&gt;write()&lt;/pre&gt;&lt;/div&gt;&lt;/h1&gt;" style="text;html=1;whiteSpace=wrap;overflow=hidden;rounded=0;" vertex="1" parent="1">
          <mxGeometry x="351.25" y="-18.75" width="258.75" height="218.75" as="geometry" />
        </mxCell>
        <mxCell id="htnstNkmCHxIXwUFOfN9-16" value="&lt;i&gt;BallPen(abstract)&lt;/i&gt;" style="swimlane;fontStyle=0;childLayout=stackLayout;horizontal=1;startSize=30;horizontalStack=0;resizeParent=1;resizeParentMax=0;resizeLast=0;collapsible=1;marginBottom=0;whiteSpace=wrap;html=1;" vertex="1" parent="1">
          <mxGeometry x="200" y="280" width="140" height="60" as="geometry" />
        </mxCell>
        <mxCell id="htnstNkmCHxIXwUFOfN9-20" value="&lt;i&gt;RefilPen&lt;/i&gt;(abstract)" style="swimlane;fontStyle=0;childLayout=stackLayout;horizontal=1;startSize=30;horizontalStack=0;resizeParent=1;resizeParentMax=0;resizeLast=0;collapsible=1;marginBottom=0;whiteSpace=wrap;html=1;" vertex="1" parent="1">
          <mxGeometry x="110" y="600" width="140" height="100" as="geometry" />
        </mxCell>
        <mxCell id="htnstNkmCHxIXwUFOfN9-21" value="@abstractmethod&lt;div&gt;can_refill()&lt;/div&gt;" style="text;strokeColor=none;fillColor=none;align=left;verticalAlign=middle;spacingLeft=4;spacingRight=4;overflow=hidden;points=[[0,0.5],[1,0.5]];portConstraint=eastwest;rotatable=0;whiteSpace=wrap;html=1;" vertex="1" parent="htnstNkmCHxIXwUFOfN9-20">
          <mxGeometry y="30" width="140" height="30" as="geometry" />
        </mxCell>
        <mxCell id="htnstNkmCHxIXwUFOfN9-22" value="@abstractmethod&lt;div&gt;get_refill()&lt;/div&gt;" style="text;strokeColor=none;fillColor=none;align=left;verticalAlign=middle;spacingLeft=4;spacingRight=4;overflow=hidden;points=[[0,0.5],[1,0.5]];portConstraint=eastwest;rotatable=0;whiteSpace=wrap;html=1;" vertex="1" parent="htnstNkmCHxIXwUFOfN9-20">
          <mxGeometry y="60" width="140" height="40" as="geometry" />
        </mxCell>
        <mxCell id="htnstNkmCHxIXwUFOfN9-24" value="&lt;i&gt;NonRefilPen&lt;/i&gt;(abstract)" style="swimlane;fontStyle=0;childLayout=stackLayout;horizontal=1;startSize=30;horizontalStack=0;resizeParent=1;resizeParentMax=0;resizeLast=0;collapsible=1;marginBottom=0;whiteSpace=wrap;html=1;" vertex="1" parent="1">
          <mxGeometry x="310" y="610" width="140" height="60" as="geometry" />
        </mxCell>
        <mxCell id="htnstNkmCHxIXwUFOfN9-25" value="@abstractmethod&lt;div&gt;change_refill()&lt;/div&gt;" style="text;strokeColor=none;fillColor=none;align=left;verticalAlign=middle;spacingLeft=4;spacingRight=4;overflow=hidden;points=[[0,0.5],[1,0.5]];portConstraint=eastwest;rotatable=0;whiteSpace=wrap;html=1;" vertex="1" parent="htnstNkmCHxIXwUFOfN9-24">
          <mxGeometry y="30" width="140" height="30" as="geometry" />
        </mxCell>
        <mxCell id="htnstNkmCHxIXwUFOfN9-28" value="" style="endArrow=classic;html=1;rounded=0;exitX=0.8;exitY=0.02;exitDx=0;exitDy=0;exitPerimeter=0;" edge="1" parent="1" source="htnstNkmCHxIXwUFOfN9-16" target="htnstNkmCHxIXwUFOfN9-15">
          <mxGeometry width="50" height="50" relative="1" as="geometry">
            <mxPoint x="400" y="290" as="sourcePoint" />
            <mxPoint x="450" y="240" as="targetPoint" />
            <Array as="points" />
          </mxGeometry>
        </mxCell>
        <mxCell id="htnstNkmCHxIXwUFOfN9-30" value="&lt;i&gt;GelPen(abstract)&lt;/i&gt;" style="swimlane;fontStyle=0;childLayout=stackLayout;horizontal=1;startSize=30;horizontalStack=0;resizeParent=1;resizeParentMax=0;resizeLast=0;collapsible=1;marginBottom=0;whiteSpace=wrap;html=1;" vertex="1" parent="1">
          <mxGeometry x="390" y="280" width="140" height="60" as="geometry" />
        </mxCell>
        <mxCell id="htnstNkmCHxIXwUFOfN9-34" value="&lt;i&gt;Fountain(abstract)&lt;/i&gt;" style="swimlane;fontStyle=0;childLayout=stackLayout;horizontal=1;startSize=30;horizontalStack=0;resizeParent=1;resizeParentMax=0;resizeLast=0;collapsible=1;marginBottom=0;whiteSpace=wrap;html=1;" vertex="1" parent="1">
          <mxGeometry x="570" y="280" width="140" height="60" as="geometry" />
        </mxCell>
        <mxCell id="htnstNkmCHxIXwUFOfN9-38" value="" style="endArrow=classic;html=1;rounded=0;entryX=0.445;entryY=1.013;entryDx=0;entryDy=0;entryPerimeter=0;" edge="1" parent="1" target="htnstNkmCHxIXwUFOfN9-15">
          <mxGeometry width="50" height="50" relative="1" as="geometry">
            <mxPoint x="435" y="280" as="sourcePoint" />
            <mxPoint x="485" y="230" as="targetPoint" />
          </mxGeometry>
        </mxCell>
        <mxCell id="htnstNkmCHxIXwUFOfN9-40" value="" style="curved=1;endArrow=classic;html=1;rounded=0;entryX=0.803;entryY=0.995;entryDx=0;entryDy=0;entryPerimeter=0;" edge="1" parent="1" target="htnstNkmCHxIXwUFOfN9-15">
          <mxGeometry width="50" height="50" relative="1" as="geometry">
            <mxPoint x="600" y="280" as="sourcePoint" />
            <mxPoint x="650" y="230" as="targetPoint" />
            <Array as="points">
              <mxPoint x="650" y="280" />
              <mxPoint x="600" y="230" />
            </Array>
          </mxGeometry>
        </mxCell>
        <mxCell id="htnstNkmCHxIXwUFOfN9-41" value="RefilBallPen" style="swimlane;fontStyle=0;childLayout=stackLayout;horizontal=1;startSize=30;horizontalStack=0;resizeParent=1;resizeParentMax=0;resizeLast=0;collapsible=1;marginBottom=0;whiteSpace=wrap;html=1;" vertex="1" parent="1">
          <mxGeometry x="10" y="400" width="140" height="60" as="geometry" />
        </mxCell>
        <mxCell id="htnstNkmCHxIXwUFOfN9-45" value="NonRefilBallPen" style="swimlane;fontStyle=0;childLayout=stackLayout;horizontal=1;startSize=30;horizontalStack=0;resizeParent=1;resizeParentMax=0;resizeLast=0;collapsible=1;marginBottom=0;whiteSpace=wrap;html=1;" vertex="1" parent="1">
          <mxGeometry x="200" y="400" width="140" height="60" as="geometry" />
        </mxCell>
        <mxCell id="htnstNkmCHxIXwUFOfN9-49" value="" style="curved=1;endArrow=classic;html=1;rounded=0;" edge="1" parent="1">
          <mxGeometry width="50" height="50" relative="1" as="geometry">
            <mxPoint x="120" y="400" as="sourcePoint" />
            <mxPoint x="200" y="338" as="targetPoint" />
            <Array as="points">
              <mxPoint x="170" y="400" />
              <mxPoint x="120" y="350" />
            </Array>
          </mxGeometry>
        </mxCell>
        <mxCell id="htnstNkmCHxIXwUFOfN9-51" value="" style="endArrow=classic;html=1;rounded=0;entryX=0.334;entryY=1.12;entryDx=0;entryDy=0;entryPerimeter=0;" edge="1" parent="1">
          <mxGeometry width="50" height="50" relative="1" as="geometry">
            <mxPoint x="240" y="400" as="sourcePoint" />
            <mxPoint x="246.76" y="343.5999999999999" as="targetPoint" />
          </mxGeometry>
        </mxCell>
        <mxCell id="htnstNkmCHxIXwUFOfN9-53" value="RefilGelPen" style="swimlane;fontStyle=0;childLayout=stackLayout;horizontal=1;startSize=30;horizontalStack=0;resizeParent=1;resizeParentMax=0;resizeLast=0;collapsible=1;marginBottom=0;whiteSpace=wrap;html=1;" vertex="1" parent="1">
          <mxGeometry x="360" y="400" width="140" height="60" as="geometry" />
        </mxCell>
        <mxCell id="htnstNkmCHxIXwUFOfN9-55" value="NonRefilGelPen" style="swimlane;fontStyle=0;childLayout=stackLayout;horizontal=1;startSize=30;horizontalStack=0;resizeParent=1;resizeParentMax=0;resizeLast=0;collapsible=1;marginBottom=0;whiteSpace=wrap;html=1;" vertex="1" parent="1">
          <mxGeometry x="510" y="400" width="140" height="60" as="geometry" />
        </mxCell>
        <mxCell id="htnstNkmCHxIXwUFOfN9-57" value="" style="endArrow=classic;html=1;rounded=0;entryX=0.326;entryY=1.067;entryDx=0;entryDy=0;entryPerimeter=0;" edge="1" parent="1">
          <mxGeometry width="50" height="50" relative="1" as="geometry">
            <mxPoint x="425" y="400" as="sourcePoint" />
            <mxPoint x="435.6400000000001" y="342.01" as="targetPoint" />
          </mxGeometry>
        </mxCell>
        <mxCell id="htnstNkmCHxIXwUFOfN9-58" value="" style="endArrow=classic;html=1;rounded=0;" edge="1" parent="1">
          <mxGeometry width="50" height="50" relative="1" as="geometry">
            <mxPoint x="550" y="400" as="sourcePoint" />
            <mxPoint x="480" y="340" as="targetPoint" />
          </mxGeometry>
        </mxCell>
        <mxCell id="htnstNkmCHxIXwUFOfN9-60" value="" style="endArrow=classic;html=1;rounded=0;entryX=0.863;entryY=-0.04;entryDx=0;entryDy=0;entryPerimeter=0;exitX=0.297;exitY=1.12;exitDx=0;exitDy=0;exitPerimeter=0;" edge="1" parent="1" target="htnstNkmCHxIXwUFOfN9-24">
          <mxGeometry width="50" height="50" relative="1" as="geometry">
            <mxPoint x="551.5799999999999" y="463.5999999999999" as="sourcePoint" />
            <mxPoint x="450" y="470" as="targetPoint" />
          </mxGeometry>
        </mxCell>
        <mxCell id="htnstNkmCHxIXwUFOfN9-62" value="" style="curved=1;endArrow=classic;html=1;rounded=0;entryX=-0.011;entryY=-0.03;entryDx=0;entryDy=0;entryPerimeter=0;exitX=0.223;exitY=1.067;exitDx=0;exitDy=0;exitPerimeter=0;" edge="1" parent="1" target="htnstNkmCHxIXwUFOfN9-22">
          <mxGeometry width="50" height="50" relative="1" as="geometry">
            <mxPoint x="41.22000000000003" y="462.0100000000002" as="sourcePoint" />
            <mxPoint x="70" y="510" as="targetPoint" />
            <Array as="points">
              <mxPoint x="70" y="560" />
              <mxPoint x="20" y="510" />
            </Array>
          </mxGeometry>
        </mxCell>
        <mxCell id="htnstNkmCHxIXwUFOfN9-63" value="" style="endArrow=classic;html=1;rounded=0;entryX=0.594;entryY=0.02;entryDx=0;entryDy=0;entryPerimeter=0;exitX=0.186;exitY=1.04;exitDx=0;exitDy=0;exitPerimeter=0;" edge="1" parent="1" target="htnstNkmCHxIXwUFOfN9-20">
          <mxGeometry width="50" height="50" relative="1" as="geometry">
            <mxPoint x="386.03999999999996" y="461.1999999999998" as="sourcePoint" />
            <mxPoint x="450" y="470" as="targetPoint" />
          </mxGeometry>
        </mxCell>
        <mxCell id="htnstNkmCHxIXwUFOfN9-64" value="RefilFountainPen" style="swimlane;fontStyle=0;childLayout=stackLayout;horizontal=1;startSize=30;horizontalStack=0;resizeParent=1;resizeParentMax=0;resizeLast=0;collapsible=1;marginBottom=0;whiteSpace=wrap;html=1;" vertex="1" parent="1">
          <mxGeometry x="670" y="400" width="140" height="60" as="geometry" />
        </mxCell>
        <mxCell id="htnstNkmCHxIXwUFOfN9-66" value="NonRefilFountainPen" style="swimlane;fontStyle=0;childLayout=stackLayout;horizontal=1;startSize=30;horizontalStack=0;resizeParent=1;resizeParentMax=0;resizeLast=0;collapsible=1;marginBottom=0;whiteSpace=wrap;html=1;" vertex="1" parent="1">
          <mxGeometry x="830" y="400" width="140" height="60" as="geometry" />
        </mxCell>
        <mxCell id="htnstNkmCHxIXwUFOfN9-68" value="" style="endArrow=classic;html=1;rounded=0;exitX=0.103;exitY=1.12;exitDx=0;exitDy=0;exitPerimeter=0;entryX=0.857;entryY=1.07;entryDx=0;entryDy=0;entryPerimeter=0;" edge="1" parent="1" target="htnstNkmCHxIXwUFOfN9-22">
          <mxGeometry width="50" height="50" relative="1" as="geometry">
            <mxPoint x="684.4200000000001" y="463.5999999999999" as="sourcePoint" />
            <mxPoint x="260" y="771.5999755859375" as="targetPoint" />
            <Array as="points">
              <mxPoint x="610" y="660" />
              <mxPoint x="420" y="770" />
            </Array>
          </mxGeometry>
        </mxCell>
        <mxCell id="htnstNkmCHxIXwUFOfN9-71" value="" style="endArrow=classic;html=1;rounded=0;entryX=0.5;entryY=0;entryDx=0;entryDy=0;exitX=0.62;exitY=0.96;exitDx=0;exitDy=0;exitPerimeter=0;" edge="1" parent="1" target="htnstNkmCHxIXwUFOfN9-24">
          <mxGeometry width="50" height="50" relative="1" as="geometry">
            <mxPoint x="286.79999999999995" y="458.8000000000002" as="sourcePoint" />
            <mxPoint x="450" y="480" as="targetPoint" />
          </mxGeometry>
        </mxCell>
        <mxCell id="htnstNkmCHxIXwUFOfN9-72" value="" style="endArrow=classic;html=1;rounded=0;entryX=1;entryY=0.25;entryDx=0;entryDy=0;exitX=0.291;exitY=0.987;exitDx=0;exitDy=0;exitPerimeter=0;" edge="1" parent="1" target="htnstNkmCHxIXwUFOfN9-24">
          <mxGeometry width="50" height="50" relative="1" as="geometry">
            <mxPoint x="870.74" y="459.6100000000001" as="sourcePoint" />
            <mxPoint x="550" y="550" as="targetPoint" />
          </mxGeometry>
        </mxCell>
        <mxCell id="htnstNkmCHxIXwUFOfN9-73" value="Refil" style="swimlane;fontStyle=0;childLayout=stackLayout;horizontal=1;startSize=30;horizontalStack=0;resizeParent=1;resizeParentMax=0;resizeLast=0;collapsible=1;marginBottom=0;whiteSpace=wrap;html=1;" vertex="1" parent="1">
          <mxGeometry x="830" y="80" width="140" height="60" as="geometry" />
        </mxCell>
        <mxCell id="htnstNkmCHxIXwUFOfN9-74" value="--ink:Ink&lt;div&gt;--nib: NIb&lt;/div&gt;" style="text;strokeColor=none;fillColor=none;align=left;verticalAlign=middle;spacingLeft=4;spacingRight=4;overflow=hidden;points=[[0,0.5],[1,0.5]];portConstraint=eastwest;rotatable=0;whiteSpace=wrap;html=1;" vertex="1" parent="htnstNkmCHxIXwUFOfN9-73">
          <mxGeometry y="30" width="140" height="30" as="geometry" />
        </mxCell>
        <mxCell id="htnstNkmCHxIXwUFOfN9-77" value="Nib" style="swimlane;fontStyle=0;childLayout=stackLayout;horizontal=1;startSize=30;horizontalStack=0;resizeParent=1;resizeParentMax=0;resizeLast=0;collapsible=1;marginBottom=0;whiteSpace=wrap;html=1;" vertex="1" parent="1">
          <mxGeometry x="820" y="170" width="140" height="90" as="geometry" />
        </mxCell>
        <mxCell id="htnstNkmCHxIXwUFOfN9-78" value="radius" style="text;strokeColor=none;fillColor=none;align=left;verticalAlign=middle;spacingLeft=4;spacingRight=4;overflow=hidden;points=[[0,0.5],[1,0.5]];portConstraint=eastwest;rotatable=0;whiteSpace=wrap;html=1;" vertex="1" parent="htnstNkmCHxIXwUFOfN9-77">
          <mxGeometry y="30" width="140" height="30" as="geometry" />
        </mxCell>
        <mxCell id="htnstNkmCHxIXwUFOfN9-79" value="nibType:NibType" style="text;strokeColor=none;fillColor=none;align=left;verticalAlign=middle;spacingLeft=4;spacingRight=4;overflow=hidden;points=[[0,0.5],[1,0.5]];portConstraint=eastwest;rotatable=0;whiteSpace=wrap;html=1;" vertex="1" parent="htnstNkmCHxIXwUFOfN9-77">
          <mxGeometry y="60" width="140" height="30" as="geometry" />
        </mxCell>
        <mxCell id="htnstNkmCHxIXwUFOfN9-81" value="NibType(enum)" style="swimlane;fontStyle=0;childLayout=stackLayout;horizontal=1;startSize=30;horizontalStack=0;resizeParent=1;resizeParentMax=0;resizeLast=0;collapsible=1;marginBottom=0;whiteSpace=wrap;html=1;" vertex="1" parent="1">
          <mxGeometry x="815" y="280" width="150" height="80" as="geometry" />
        </mxCell>
        <mxCell id="htnstNkmCHxIXwUFOfN9-82" value="PLASTIC&lt;div&gt;SILVER&lt;/div&gt;&lt;div&gt;GOLD&lt;/div&gt;" style="text;strokeColor=none;fillColor=none;align=left;verticalAlign=middle;spacingLeft=4;spacingRight=4;overflow=hidden;points=[[0,0.5],[1,0.5]];portConstraint=eastwest;rotatable=0;whiteSpace=wrap;html=1;" vertex="1" parent="htnstNkmCHxIXwUFOfN9-81">
          <mxGeometry y="30" width="150" height="50" as="geometry" />
        </mxCell>
        <mxCell id="htnstNkmCHxIXwUFOfN9-89" value="Ink" style="swimlane;fontStyle=0;childLayout=stackLayout;horizontal=1;startSize=30;horizontalStack=0;resizeParent=1;resizeParentMax=0;resizeLast=0;collapsible=1;marginBottom=0;whiteSpace=wrap;html=1;" vertex="1" parent="1">
          <mxGeometry x="630" y="30.62" width="140" height="80" as="geometry" />
        </mxCell>
        <mxCell id="htnstNkmCHxIXwUFOfN9-90" value="color&lt;div&gt;quantity&lt;/div&gt;&lt;div&gt;type:InkType&lt;/div&gt;" style="text;strokeColor=none;fillColor=none;align=left;verticalAlign=middle;spacingLeft=4;spacingRight=4;overflow=hidden;points=[[0,0.5],[1,0.5]];portConstraint=eastwest;rotatable=0;whiteSpace=wrap;html=1;" vertex="1" parent="htnstNkmCHxIXwUFOfN9-89">
          <mxGeometry y="30" width="140" height="50" as="geometry" />
        </mxCell>
        <mxCell id="htnstNkmCHxIXwUFOfN9-93" value="InkType(enum)" style="swimlane;fontStyle=0;childLayout=stackLayout;horizontal=1;startSize=30;horizontalStack=0;resizeParent=1;resizeParentMax=0;resizeLast=0;collapsible=1;marginBottom=0;whiteSpace=wrap;html=1;" vertex="1" parent="1">
          <mxGeometry x="640" y="140" width="140" height="120" as="geometry" />
        </mxCell>
        <mxCell id="htnstNkmCHxIXwUFOfN9-94" value="GEL" style="text;strokeColor=none;fillColor=none;align=left;verticalAlign=middle;spacingLeft=4;spacingRight=4;overflow=hidden;points=[[0,0.5],[1,0.5]];portConstraint=eastwest;rotatable=0;whiteSpace=wrap;html=1;" vertex="1" parent="htnstNkmCHxIXwUFOfN9-93">
          <mxGeometry y="30" width="140" height="30" as="geometry" />
        </mxCell>
        <mxCell id="htnstNkmCHxIXwUFOfN9-95" value="BALL" style="text;strokeColor=none;fillColor=none;align=left;verticalAlign=middle;spacingLeft=4;spacingRight=4;overflow=hidden;points=[[0,0.5],[1,0.5]];portConstraint=eastwest;rotatable=0;whiteSpace=wrap;html=1;" vertex="1" parent="htnstNkmCHxIXwUFOfN9-93">
          <mxGeometry y="60" width="140" height="30" as="geometry" />
        </mxCell>
        <mxCell id="htnstNkmCHxIXwUFOfN9-96" value="FOUNTAIN" style="text;strokeColor=none;fillColor=none;align=left;verticalAlign=middle;spacingLeft=4;spacingRight=4;overflow=hidden;points=[[0,0.5],[1,0.5]];portConstraint=eastwest;rotatable=0;whiteSpace=wrap;html=1;" vertex="1" parent="htnstNkmCHxIXwUFOfN9-93">
          <mxGeometry y="90" width="140" height="30" as="geometry" />
        </mxCell>
        <mxCell id="htnstNkmCHxIXwUFOfN9-97" value="&lt;i&gt;WrittingStrategy(abstract)&lt;/i&gt;" style="swimlane;fontStyle=0;childLayout=stackLayout;horizontal=1;startSize=30;horizontalStack=0;resizeParent=1;resizeParentMax=0;resizeLast=0;collapsible=1;marginBottom=0;whiteSpace=wrap;html=1;" vertex="1" parent="1">
          <mxGeometry x="300" y="-270" width="140" height="60" as="geometry" />
        </mxCell>
        <mxCell id="htnstNkmCHxIXwUFOfN9-98" value="write()" style="text;strokeColor=none;fillColor=none;align=left;verticalAlign=middle;spacingLeft=4;spacingRight=4;overflow=hidden;points=[[0,0.5],[1,0.5]];portConstraint=eastwest;rotatable=0;whiteSpace=wrap;html=1;" vertex="1" parent="htnstNkmCHxIXwUFOfN9-97">
          <mxGeometry y="30" width="140" height="30" as="geometry" />
        </mxCell>
        <mxCell id="htnstNkmCHxIXwUFOfN9-102" value="DottedWrittingStrategy" style="swimlane;fontStyle=0;childLayout=stackLayout;horizontal=1;startSize=30;horizontalStack=0;resizeParent=1;resizeParentMax=0;resizeLast=0;collapsible=1;marginBottom=0;whiteSpace=wrap;html=1;" vertex="1" parent="1">
          <mxGeometry x="130" y="-140" width="140" height="60" as="geometry" />
        </mxCell>
        <mxCell id="htnstNkmCHxIXwUFOfN9-106" value="SmoothWrittingStrategy" style="swimlane;fontStyle=0;childLayout=stackLayout;horizontal=1;startSize=30;horizontalStack=0;resizeParent=1;resizeParentMax=0;resizeLast=0;collapsible=1;marginBottom=0;whiteSpace=wrap;html=1;" vertex="1" parent="1">
          <mxGeometry x="460" y="-170" width="140" height="60" as="geometry" />
        </mxCell>
        <mxCell id="htnstNkmCHxIXwUFOfN9-118" value="" style="endArrow=classic;html=1;rounded=0;entryX=0.694;entryY=1.133;entryDx=0;entryDy=0;entryPerimeter=0;exitX=0;exitY=0.75;exitDx=0;exitDy=0;" edge="1" parent="1" source="htnstNkmCHxIXwUFOfN9-106" target="htnstNkmCHxIXwUFOfN9-98">
          <mxGeometry width="50" height="50" relative="1" as="geometry">
            <mxPoint x="400" y="-70" as="sourcePoint" />
            <mxPoint x="450" y="-120" as="targetPoint" />
          </mxGeometry>
        </mxCell>
        <mxCell id="htnstNkmCHxIXwUFOfN9-119" value="" style="endArrow=classic;html=1;rounded=0;entryX=0.26;entryY=1.133;entryDx=0;entryDy=0;entryPerimeter=0;exitX=0.857;exitY=0;exitDx=0;exitDy=0;exitPerimeter=0;" edge="1" parent="1" source="htnstNkmCHxIXwUFOfN9-102" target="htnstNkmCHxIXwUFOfN9-98">
          <mxGeometry width="50" height="50" relative="1" as="geometry">
            <mxPoint x="400" y="-70" as="sourcePoint" />
            <mxPoint x="450" y="-120" as="targetPoint" />
          </mxGeometry>
        </mxCell>
        <mxCell id="htnstNkmCHxIXwUFOfN9-124" value="Brand(enum)" style="swimlane;fontStyle=0;childLayout=stackLayout;horizontal=1;startSize=30;horizontalStack=0;resizeParent=1;resizeParentMax=0;resizeLast=0;collapsible=1;marginBottom=0;whiteSpace=wrap;html=1;" vertex="1" parent="1">
          <mxGeometry x="700" y="-170" width="140" height="130" as="geometry" />
        </mxCell>
        <mxCell id="htnstNkmCHxIXwUFOfN9-125" value="PARKER&lt;div&gt;PILOT&lt;/div&gt;&lt;div&gt;CELLO&lt;/div&gt;&lt;div&gt;WRITOMETER&lt;/div&gt;&lt;div&gt;WATERMAN&lt;/div&gt;&lt;div&gt;CROSS_PEN&lt;br&gt;&lt;div&gt;&lt;br&gt;&lt;/div&gt;&lt;/div&gt;" style="text;strokeColor=none;fillColor=none;align=left;verticalAlign=middle;spacingLeft=4;spacingRight=4;overflow=hidden;points=[[0,0.5],[1,0.5]];portConstraint=eastwest;rotatable=0;whiteSpace=wrap;html=1;" vertex="1" parent="htnstNkmCHxIXwUFOfN9-124">
          <mxGeometry y="30" width="140" height="100" as="geometry" />
        </mxCell>
        <mxCell id="G5LS62guRq5OAAtntw24-1" value="" style="endArrow=classic;html=1;rounded=0;" edge="1" parent="1">
          <mxGeometry width="50" height="50" relative="1" as="geometry">
            <mxPoint x="715" y="400" as="sourcePoint" />
            <mxPoint x="660" y="350" as="targetPoint" />
          </mxGeometry>
        </mxCell>
        <mxCell id="G5LS62guRq5OAAtntw24-2" value="" style="endArrow=classic;html=1;rounded=0;entryX=1;entryY=0.75;entryDx=0;entryDy=0;exitX=0;exitY=0;exitDx=0;exitDy=0;" edge="1" parent="1" source="htnstNkmCHxIXwUFOfN9-66" target="htnstNkmCHxIXwUFOfN9-34">
          <mxGeometry width="50" height="50" relative="1" as="geometry">
            <mxPoint x="750" y="380" as="sourcePoint" />
            <mxPoint x="800" y="330" as="targetPoint" />
          </mxGeometry>
        </mxCell>
      </root>
    </mxGraphModel>
  </diagram>
</mxfile>
